<svg width="184" height="60" viewBox="0 0 184 60" fill="none" xmlns="http://www.w3.org/2000/svg">
    <path d="M29.835 18.6406V27.212C29.835 27.5735 30.0949 27.8833 30.5627 28.0898L30.9785 28.348C31.2904 28.5029 31.4463 28.6061 31.4983 28.6061C31.6542 28.7611 31.7062 28.916 31.7062 29.1741C31.7062 29.5356 31.6542 29.7937 31.4983 29.897C31.3424 30.0003 31.0825 30.0519 30.6147 30.0519H26.3006C25.7808 30.0519 25.4169 30.0003 25.209 29.897C25.0011 29.7937 24.8972 29.5356 24.8972 29.1225C24.8972 28.8127 25.1051 28.5545 25.5729 28.348C25.8328 28.2447 26.0926 28.1414 26.3525 28.0382C26.6644 27.8316 26.7684 27.5735 26.7684 27.212V18.5373C26.7684 17.6596 26.7684 16.9883 26.7164 16.5752C26.6644 16.1105 26.5085 15.6458 26.2486 15.1294C25.6248 13.8386 24.4813 13.219 22.922 13.219C21.5706 13.219 20.3751 13.5804 19.3356 14.3033C18.0881 15.1294 17.4644 16.2138 17.4644 17.5563V27.2636C17.4644 27.6251 17.5684 27.8833 17.7763 28.0382C18.1401 28.1931 18.452 28.2963 18.7119 28.4512C18.9717 28.6061 19.1277 28.6578 19.1277 28.7094C19.2836 28.8643 19.3356 29.0192 19.3356 29.2774C19.3356 29.6905 19.2836 29.9487 19.1277 30.0519C18.9717 30.1552 18.7119 30.2068 18.1921 30.2068H13.826C13.3062 30.2068 12.9943 30.1552 12.7864 30.0519C12.5785 29.9487 12.5265 29.6905 12.5265 29.2774C12.5265 28.9676 12.7345 28.7094 13.1503 28.5029C13.4621 28.348 13.774 28.2447 14.0859 28.0898C14.3458 27.8833 14.4497 27.6251 14.4497 27.3669V18.9504C14.4497 16.6785 14.0859 15.1294 13.3062 14.3033C12.6825 13.5804 11.6949 13.219 10.4475 13.219C9.2 13.219 8.05649 13.5804 7.01695 14.3033C5.76949 15.1294 5.14576 16.2138 5.14576 17.5563V27.2636C5.14576 27.6251 5.30169 27.8833 5.56158 28.0382C5.9774 28.1931 6.28926 28.348 6.49717 28.3996C6.70508 28.4512 6.91299 28.6061 7.01695 28.7094C7.1209 28.8127 7.17288 28.9676 7.17288 29.1741C7.17288 29.5356 7.06892 29.7937 6.86101 29.897C6.6531 30.0003 6.34124 30.0519 5.92542 30.0519H1.87119C1.35141 30.0519 0.935593 30.0003 0.727683 29.897C0.467796 29.7937 0.363842 29.5356 0.363842 29.1741C0.363842 28.8643 0.571751 28.6061 1.03955 28.3996C1.45537 28.1931 1.71525 28.0898 1.81921 28.0382C2.13107 27.8316 2.23503 27.5735 2.23503 27.212V17.453V16.8334C2.23503 16.0589 2.18305 15.5425 2.0791 15.2327C1.87119 14.7164 1.50734 14.3549 0.935593 14.2C0.779661 14.1484 0.623729 14.1484 0.519774 14.0968C0.155932 13.9935 0 13.7869 0 13.5288C0 13.219 0.20791 12.9091 0.623729 12.5993C0.935593 12.3928 1.09152 12.2379 1.19548 12.1863C1.66328 11.8248 1.97514 11.6183 2.13107 11.515C2.59887 11.2052 2.96271 11.1019 3.2226 11.1019C3.84633 11.1019 4.26215 11.7732 4.57401 13.0641C4.62599 13.3739 4.72994 13.8386 4.8339 14.5615C5.61356 13.4771 6.60113 12.5993 7.69265 11.9797C8.78418 11.3601 9.97966 11.0503 11.3311 11.0503C12.6305 11.0503 13.722 11.3601 14.6576 11.9281C15.5932 12.4961 16.3729 13.3739 17.1006 14.5615C17.8282 13.5288 18.8158 12.651 19.9593 12.0314C21.1028 11.4117 22.3503 11.1019 23.6497 11.1019C25.6248 11.1019 27.2361 11.7732 28.4316 13.1673C29.0034 13.7869 29.3672 14.6131 29.5751 15.5942C29.7311 16.5236 29.835 17.5563 29.835 18.6406Z" fill="white"/>
    <path d="M49.8461 11.0503C52.549 11.0503 54.8879 11.9797 56.8631 13.8386C58.7862 15.6974 59.7738 18.021 59.7738 20.706C59.7738 23.5459 58.7862 25.8695 56.8631 27.78C54.9399 29.6905 52.497 30.6199 49.6902 30.6199C46.9874 30.6199 44.6484 29.6388 42.7772 27.7284C40.854 25.8179 39.9185 23.4943 39.9185 20.8093C39.9185 18.1243 40.906 15.8007 42.8812 13.8902C44.8043 12.0314 47.1433 11.0503 49.8461 11.0503ZM49.6902 28.7094C51.8213 28.7094 53.5885 27.8316 54.8879 26.1277C55.4597 25.4048 55.8755 24.5786 56.1354 23.6492C56.3953 22.7198 56.5512 21.6871 56.5512 20.6544C56.5512 18.4857 55.9795 16.6785 54.836 15.2844C53.5885 13.7353 51.8733 13.0124 49.7422 13.0124C47.6111 13.0124 45.8959 13.8386 44.6484 15.4909C43.5569 16.9883 42.9851 18.7955 42.9851 21.0158C42.9851 23.1845 43.5049 24.9401 44.6484 26.3858C45.8959 27.9349 47.5591 28.7094 49.6902 28.7094Z" fill="white"/>
    <path d="M86.439 18.7954V27.2635C86.439 27.5733 86.5429 27.7799 86.6989 27.9348C87.2186 28.1929 87.5305 28.2962 87.6345 28.3479C87.9463 28.5028 88.1023 28.606 88.1542 28.606C88.3102 28.7609 88.3621 28.9158 88.3621 29.174C88.3621 29.3806 88.3102 29.5355 88.2062 29.6904C87.9983 29.9485 87.7384 30.1034 87.3746 30.1034H82.9565C82.6446 30.1034 82.4367 30.1034 82.2808 30.1034C82.0209 30.1034 81.813 30.0518 81.6571 29.9485C81.5011 29.8453 81.4491 29.5871 81.4491 29.174C81.4491 28.8126 81.6571 28.5544 82.1249 28.3995C82.3847 28.2962 82.6446 28.1929 82.9565 28.038C83.2684 27.8831 83.4243 27.625 83.4243 27.2119V16.9365C83.4243 15.8522 83.1124 14.9744 82.4887 14.3548C81.709 13.5803 80.4616 13.2188 78.7983 13.2188C77.9667 13.2188 77.135 13.3737 76.4073 13.6319C75.6797 13.9417 75.004 14.3032 74.4322 14.8195C73.8605 15.3359 73.4966 15.8522 73.3407 16.4202C73.1847 16.9882 73.0808 17.7111 73.0808 18.5889V27.1603C73.0808 27.5217 73.2367 27.8315 73.5486 27.9864C73.6525 28.038 73.8605 28.0897 74.1723 28.2446C74.5362 28.3995 74.7441 28.5028 74.9 28.606C75.0559 28.7093 75.1079 28.8642 75.1079 29.1224C75.1079 29.4322 75.004 29.6387 74.848 29.7936C74.6401 29.9485 74.4322 30.0518 74.0684 30.0518H69.6503C69.3384 30.0518 69.1305 30.0518 68.9746 30.0518C68.6627 30.0518 68.4548 30.0002 68.2989 29.8969C68.1429 29.7936 68.039 29.5355 68.039 29.1224C68.039 28.7609 68.2989 28.5028 68.7667 28.3479C69.0266 28.2446 69.2345 28.1929 69.5463 28.0897C69.9102 27.8831 70.1181 27.5733 70.1181 27.2119V16.9882V16.5751C70.1181 15.9038 70.0661 15.4391 69.9622 15.181C69.7542 14.7679 69.4424 14.4581 68.9226 14.3032C68.4548 14.1483 68.1429 14.045 68.039 13.9417C67.935 13.8385 67.8831 13.7352 67.8831 13.5286C67.8831 13.2705 67.987 13.0123 68.1949 12.7541C68.2469 12.7025 68.4548 12.5476 68.8186 12.2378C69.1825 11.9796 69.4943 11.7214 69.8582 11.4632C70.326 11.1534 70.6898 10.9985 70.9497 10.9985C71.5215 10.9985 71.9373 11.4632 72.2492 12.341C72.3531 12.5476 72.4571 13.2705 72.665 14.4581C73.6006 13.2705 74.6401 12.3927 75.7836 11.8247C76.9271 11.2567 78.2266 10.9985 79.7859 10.9985C80.8254 10.9985 81.813 11.1534 82.6966 11.4632C83.5802 11.7731 84.3599 12.2894 84.9836 12.9607C85.6073 13.6319 85.9712 14.4581 86.1791 15.4391C86.335 16.4718 86.439 17.5562 86.439 18.7954Z" fill="white"/>
    <path d="M98.2891 25.1978V4.2857C98.2891 3.82098 98.1851 3.51117 97.9252 3.253C97.7173 3.04646 97.3535 2.83992 96.8857 2.68501C96.4179 2.53011 96.21 2.32357 96.21 2.0654C96.21 1.85886 96.3139 1.70395 96.5218 1.54905C96.7297 1.39414 96.8857 1.29087 96.9896 1.23924C97.5614 0.929428 98.1331 0.671253 98.6529 0.464714C99.4326 0.154905 100.004 0 100.368 0C100.784 0 100.992 0.154905 101.096 0.413079C101.2 0.671253 101.2 1.08433 101.2 1.60068V25.1978C101.2 25.5593 101.2 25.9207 101.2 26.3338C101.2 26.6952 101.252 27.0567 101.356 27.4181C101.46 27.7796 101.668 27.9861 101.927 28.141L102.343 28.3992C102.655 28.5541 102.811 28.6574 102.863 28.6574C103.019 28.8123 103.071 28.9672 103.071 29.2253C103.071 29.5868 103.019 29.845 102.863 29.9482C102.707 30.0515 102.447 30.1031 101.979 30.1031H97.3535C96.9376 30.1031 96.6778 30.0515 96.5218 29.9482C96.3659 29.845 96.2619 29.5868 96.2619 29.2253C96.2619 28.9155 96.4698 28.6057 96.9376 28.3992L97.6653 28.0377C97.8732 27.8828 97.9772 27.6763 98.0811 27.3148C98.1851 26.9534 98.1851 26.6436 98.1851 26.2822C98.289 25.7142 98.2891 25.3527 98.2891 25.1978Z" fill="white"/>
    <path d="M121.367 11.0503C124.07 11.0503 126.409 11.9797 128.384 13.8386C130.307 15.6974 131.295 18.021 131.295 20.706C131.295 23.5459 130.307 25.8695 128.384 27.78C126.461 29.6905 124.018 30.6199 121.211 30.6199C118.509 30.6199 116.17 29.6388 114.298 27.7284C112.375 25.8179 111.44 23.4943 111.44 20.8093C111.44 18.1243 112.427 15.8007 114.402 13.8902C116.326 12.0314 118.665 11.0503 121.367 11.0503ZM121.211 28.7094C123.343 28.7094 125.11 27.8316 126.409 26.1277C126.981 25.4048 127.397 24.5786 127.657 23.6492C127.917 22.7198 128.072 21.6871 128.072 20.6544C128.072 18.4857 127.501 16.6785 126.357 15.2844C125.11 13.7353 123.394 13.0124 121.263 13.0124C119.132 13.0124 117.417 13.8386 116.17 15.4909C115.078 16.9883 114.506 18.7955 114.506 21.0158C114.506 23.1845 115.026 24.9401 116.17 26.3858C117.417 27.9349 119.08 28.7094 121.211 28.7094Z" fill="white"/>
    <path d="M152.294 15.1294C151.67 14.3549 151.15 13.8386 150.734 13.5288C150.163 13.1673 149.435 12.9608 148.551 12.9608C147.72 12.9608 146.888 13.219 146.16 13.6837C145.433 14.1484 144.809 14.768 144.341 15.5425C143.873 16.3171 143.509 17.2465 143.25 18.2792C142.99 19.3119 142.886 20.3446 142.886 21.3773C142.886 23.2878 143.457 24.8884 144.549 26.2826C145.641 27.6767 147.148 28.348 149.019 28.348C149.955 28.348 150.838 28.1414 151.774 27.78C152.657 27.4185 153.385 26.9022 154.009 26.1793C154.269 25.8695 154.425 25.663 154.529 25.6113C154.789 25.4048 154.996 25.3015 155.308 25.3015C155.776 25.3015 155.984 25.5597 155.984 26.0244C155.984 26.3858 155.828 26.7473 155.464 27.212C155.152 27.6767 154.789 28.0382 154.425 28.3996C152.709 29.9487 150.786 30.6715 148.551 30.6715C145.848 30.6715 143.665 29.7938 142.106 28.0382C140.547 26.2826 139.715 24.0106 139.715 21.274C139.715 18.4341 140.651 16.0589 142.47 14.0451C144.289 12.0314 146.628 11.0503 149.435 11.0503C151.098 11.0503 152.554 11.4634 153.853 12.3412C154.321 12.651 154.685 13.0124 154.996 13.4255C155.308 13.8386 155.464 14.3033 155.464 14.768C155.464 15.1294 155.308 15.4909 155.048 15.8007C154.789 16.1105 154.477 16.3171 154.113 16.3171C153.697 16.3171 153.333 16.2138 153.125 16.0072C152.709 15.6458 152.45 15.336 152.294 15.1294Z" fill="white"/>
    <path d="M174.072 11.0503C176.775 11.0503 179.114 11.9797 181.089 13.8386C183.012 15.6974 184 18.021 184 20.706C184 23.5459 183.012 25.8695 181.089 27.78C179.166 29.6905 176.723 30.6199 173.916 30.6199C171.213 30.6199 168.874 29.6388 167.003 27.7284C165.08 25.8179 164.145 23.4943 164.145 20.8093C164.145 18.1243 165.132 15.8007 167.107 13.8902C169.03 12.0314 171.369 11.0503 174.072 11.0503ZM173.916 28.7094C176.047 28.7094 177.815 27.8316 179.114 26.1277C179.686 25.4048 180.102 24.5786 180.361 23.6492C180.621 22.7198 180.777 21.6871 180.777 20.6544C180.777 18.4857 180.206 16.6785 179.062 15.2844C177.815 13.7353 176.099 13.0124 173.968 13.0124C171.837 13.0124 170.122 13.8386 168.874 15.4909C167.783 16.9883 167.211 18.7955 167.211 21.0158C167.211 23.1845 167.731 24.9401 168.874 26.3858C170.122 27.9349 171.785 28.7094 173.916 28.7094Z" fill="white"/>
    <path d="M33.0055 57.3638C33.2134 57.622 33.3174 57.9318 33.3174 58.2933C33.3174 58.8096 33.1095 59.2227 32.7456 59.4809C32.3818 59.739 31.81 59.8939 31.0304 59.8939H28.1716V54.0076H30.8225C31.4982 54.0076 32.018 54.1625 32.3818 54.4206C32.7456 54.6788 32.9535 55.0403 32.9535 55.5566C32.9535 55.8664 32.9016 56.1246 32.7456 56.3828C32.5897 56.5893 32.3818 56.7959 32.1739 56.8991C32.5377 56.9508 32.7976 57.1057 33.0055 57.3638ZM29.0033 54.6788V56.5893H30.7705C31.1863 56.5893 31.5502 56.486 31.7581 56.3311C32.018 56.1762 32.1219 55.9181 32.1219 55.6082C32.1219 55.2984 32.018 55.0403 31.7581 54.8854C31.4982 54.7305 31.1863 54.6272 30.7705 54.6272H29.0033V54.6788ZM32.0699 58.9645C32.3298 58.8096 32.4338 58.5514 32.4338 58.2416C32.4338 57.5704 31.966 57.2606 30.9784 57.2606H29.0033V59.2227H30.9784C31.4462 59.2227 31.81 59.1194 32.0699 58.9645Z" fill="white"/>
    <path d="M41.0622 59.174V59.8969H36.748V54.0105H40.9582V54.7334H37.6317V56.5406H40.5424V57.2635H37.5797V59.174H41.0622Z" fill="white"/>
    <path d="M48.3384 58.3995H45.1677L44.492 59.8969H43.6604L46.3632 54.0105H47.1949L49.8977 59.8969H49.0141L48.3384 58.3995ZM48.0265 57.7282L46.7271 54.8367L45.4276 57.7282H48.0265Z" fill="white"/>
    <path d="M53.3805 59.2773C52.9127 58.8125 52.7048 58.1929 52.7048 57.3151V54.0105H53.5365V57.3151C53.5365 58.606 54.1082 59.2256 55.1997 59.2256C55.7195 59.2256 56.1353 59.0707 56.4472 58.7609C56.7591 58.4511 56.863 57.9864 56.863 57.3151V54.0105H57.6947V57.3668C57.6947 58.1929 57.4868 58.8642 57.019 59.3289C56.5512 59.7936 55.9794 60.0001 55.1478 60.0001C54.4201 59.9485 53.8483 59.742 53.3805 59.2773Z" fill="white"/>
    <path d="M62.6841 54.7334H60.657V54.0105H65.5948V54.7334H63.5677V59.8969H62.7361V54.7334H62.6841Z" fill="white"/>
    <path d="M70.8449 57.8831V59.9485H70.0133V57.8831L67.6743 54.0105H68.6099L70.5331 57.1086L72.4562 54.0105H73.2879L70.8449 57.8831Z" fill="white"/>
    <path d="M81.6567 59.5863C81.1889 59.3282 80.8251 58.9667 80.5132 58.502C80.2533 58.0373 80.0974 57.5209 80.0974 56.9529C80.0974 56.385 80.2533 55.8686 80.5132 55.4039C80.7731 54.9392 81.137 54.5777 81.6567 54.3196C82.1245 54.0614 82.6963 53.9065 83.268 53.9065C83.7358 53.9065 84.1516 54.0098 84.5675 54.1647C84.9313 54.3196 85.2951 54.5261 85.555 54.8359L84.9833 55.3523C84.5155 54.8876 83.9957 54.6294 83.32 54.6294C82.8522 54.6294 82.4884 54.7327 82.1245 54.9392C81.7607 55.1457 81.5008 55.4039 81.2929 55.7653C81.085 56.1268 80.981 56.4882 80.981 56.9013C80.981 57.3144 81.085 57.7275 81.2929 58.0373C81.5008 58.3987 81.7607 58.6569 82.1245 58.8634C82.4884 59.07 82.9042 59.1733 83.32 59.1733C83.9957 59.1733 84.5155 58.9151 84.9833 58.4504L85.555 58.9667C85.2951 59.2765 84.9313 59.4831 84.5675 59.638C84.2036 59.7929 83.7358 59.8961 83.268 59.8961C82.6443 59.9478 82.1245 59.8445 81.6567 59.5863Z" fill="white"/>
    <path d="M89.8166 59.5863C89.3488 59.3282 88.933 58.9667 88.6731 58.502C88.4133 58.0373 88.2573 57.5209 88.2573 56.9529C88.2573 56.385 88.4133 55.8686 88.6731 55.4039C88.933 54.9392 89.3488 54.5777 89.8166 54.3196C90.2844 54.0614 90.8562 53.9065 91.4279 53.9065C91.9997 53.9065 92.5714 54.0614 93.0392 54.3196C93.507 54.5777 93.9229 54.9392 94.1827 55.4039C94.4426 55.8686 94.5986 56.385 94.5986 56.9529C94.5986 57.5209 94.4426 58.0373 94.1827 58.502C93.9229 58.9667 93.559 59.3282 93.0392 59.5863C92.5714 59.8445 91.9997 59.9994 91.4279 59.9994C90.8042 59.9478 90.2844 59.8445 89.8166 59.5863ZM92.6234 58.9151C92.9873 58.7085 93.2472 58.4504 93.4551 58.0889C93.663 57.7275 93.7669 57.366 93.7669 56.9529C93.7669 56.5399 93.663 56.1268 93.4551 55.817C93.2472 55.4555 92.9873 55.1974 92.6234 54.9908C92.2596 54.7843 91.8957 54.681 91.4279 54.681C91.0121 54.681 90.5963 54.7843 90.2325 54.9908C89.8686 55.1974 89.6087 55.4555 89.4008 55.817C89.1929 56.1784 89.089 56.5399 89.089 56.9529C89.089 57.366 89.1929 57.7791 89.4008 58.0889C89.6087 58.4504 89.8686 58.7085 90.2325 58.9151C90.5963 59.1216 90.9601 59.2249 91.4279 59.2249C91.8438 59.2249 92.2596 59.1216 92.6234 58.9151Z" fill="white"/>
    <path d="M106.241 54.0105L104.266 59.8969H103.382L101.771 55.1981L100.16 59.8969H99.2241L97.197 54.0105H98.0806L99.6919 58.8125L101.355 54.0105H102.135L103.798 58.8642L105.461 54.0105H106.241Z" fill="white"/>
    <path d="M110.4 59.5863C109.932 59.3282 109.516 58.9667 109.256 58.502C108.996 58.0373 108.84 57.5209 108.84 56.9529C108.84 56.385 108.996 55.8686 109.256 55.4039C109.516 54.9392 109.932 54.5777 110.4 54.3196C110.867 54.0614 111.439 53.9065 112.011 53.9065C112.583 53.9065 113.154 54.0614 113.622 54.3196C114.09 54.5777 114.506 54.9392 114.766 55.4039C115.026 55.8686 115.182 56.385 115.182 56.9529C115.182 57.5209 115.026 58.0373 114.766 58.502C114.506 58.9667 114.142 59.3282 113.622 59.5863C113.102 59.8445 112.583 59.9994 112.011 59.9994C111.439 59.9478 110.867 59.8445 110.4 59.5863ZM113.206 58.9151C113.57 58.7085 113.83 58.4504 114.038 58.0889C114.246 57.7275 114.35 57.366 114.35 56.9529C114.35 56.5399 114.246 56.1268 114.038 55.817C113.83 55.4555 113.57 55.1974 113.206 54.9908C112.843 54.7843 112.479 54.681 112.011 54.681C111.543 54.681 111.179 54.7843 110.815 54.9908C110.452 55.1974 110.192 55.4555 109.984 55.817C109.776 56.1784 109.672 56.5399 109.672 56.9529C109.672 57.366 109.776 57.7791 109.984 58.0889C110.192 58.3987 110.452 58.7085 110.815 58.9151C111.179 59.1216 111.543 59.2249 112.011 59.2249C112.479 59.2249 112.843 59.1216 113.206 58.9151Z" fill="white"/>
    <path d="M122.562 59.8969L121.263 58.0897C121.107 58.0897 121.003 58.0897 120.899 58.0897H119.443V59.8969H118.612V54.0105H120.951C121.73 54.0105 122.302 54.217 122.77 54.5785C123.238 54.9399 123.446 55.4563 123.446 56.0759C123.446 56.5406 123.342 56.9021 123.082 57.2635C122.874 57.5733 122.51 57.8315 122.094 57.9864L123.498 59.9485H122.562V59.8969ZM122.146 57.057C122.406 56.8504 122.562 56.489 122.562 56.0759C122.562 55.6628 122.406 55.3014 122.146 55.0948C121.886 54.8883 121.471 54.7334 120.899 54.7334H119.443V57.4184H120.899C121.419 57.3668 121.834 57.2635 122.146 57.057Z" fill="white"/>
    <path d="M128.851 57.2635L127.76 58.3478V59.8969H126.928V54.0105H127.76V57.3151L130.982 54.0105H131.97L129.423 56.6955L132.126 59.9485H131.138L128.851 57.2635Z" fill="white"/>
    <path d="M135.141 54.0105H135.972V59.8969H135.141V54.0105Z" fill="white"/>
    <path d="M145.018 54.0105V59.8969H144.342L140.755 55.5079V59.8969H139.924V54.0105H140.6L144.186 58.3995V54.0105H145.018Z" fill="white"/>
    <path d="M153.073 56.9013H153.905V59.2249C153.593 59.4831 153.281 59.638 152.865 59.7929C152.449 59.9478 152.085 59.9994 151.618 59.9994C150.994 59.9994 150.474 59.8445 150.006 59.5863C149.539 59.3282 149.123 58.9667 148.863 58.502C148.603 58.0373 148.447 57.5209 148.447 56.9529C148.447 56.385 148.603 55.8686 148.863 55.4039C149.123 54.9392 149.539 54.5777 150.006 54.3196C150.474 54.0614 151.046 53.9065 151.618 53.9065C152.085 53.9065 152.501 54.0098 152.917 54.1647C153.281 54.3196 153.645 54.5261 153.905 54.8359L153.385 55.3523C152.917 54.8876 152.345 54.681 151.67 54.681C151.202 54.681 150.786 54.7843 150.474 54.9908C150.162 55.1974 149.85 55.4555 149.642 55.817C149.435 56.1784 149.331 56.5399 149.331 57.0046C149.331 57.4177 149.435 57.8307 149.642 58.1406C149.85 58.4504 150.11 58.7602 150.474 58.9667C150.838 59.1732 151.254 59.2765 151.67 59.2765C152.189 59.2765 152.657 59.1732 153.073 58.9151V56.9013Z" fill="white"/>
</svg>
